<svg xmlns="http://www.w3.org/2000/svg" width="120.032" height="192.949" viewBox="0 0 120.032 192.949"><path d="M88.256,14.379a26.832,26.832,0,0,1,26.879,26.879V157.411A26.832,26.832,0,0,1,88.256,184.29H44.1a26.832,26.832,0,0,1-26.879-26.879V40.3A26.832,26.832,0,0,1,44.1,13.419H88.256m0-11.519H44.1A38.511,38.511,0,0,0,5.7,40.3V156.451a38.511,38.511,0,0,0,38.4,38.4H87.3a38.511,38.511,0,0,0,38.4-38.4V40.3c.96-21.119-16.319-38.4-37.438-38.4Z" transform="translate(-5.7 -1.9)" fill="#767676"/><ellipse cx="12.479" cy="12.479" rx="12.479" ry="12.479" transform="translate(47.996 144.957)" fill="#767676"/></svg>