<svg xmlns="http://www.w3.org/2000/svg" width="15" height="15" viewBox="0 0 78.19 77.943"><path d="M77.09,71.376l-32.8-32.631L76.53,6.505A3.708,3.708,0,0,0,77.62,3.85,3.759,3.759,0,0,0,76.5,1.195a3.813,3.813,0,0,0-4.1-.83,3.73,3.73,0,0,0-1.245.823L38.9,33.392,6.673,1.338A3.784,3.784,0,0,0,5.42.51a3.812,3.812,0,0,0-4.111.822A3.741,3.741,0,0,0,1.3,6.662L33.534,38.747,1.134,71.093a3.813,3.813,0,0,0-.011,5.4l.043-.037a3.88,3.88,0,0,0,1.258.844A3.8,3.8,0,0,0,3.85,77.6,3.74,3.74,0,0,0,6.537,76.49L38.925,44.112,71.741,76.774a3.644,3.644,0,0,0,1.247.819,3.534,3.534,0,0,0,1.4.24,3.729,3.729,0,0,0,1.392-.319,4.036,4.036,0,0,0,1.237-.857h0a4.044,4.044,0,0,0,.845-1.246,3.749,3.749,0,0,0,.308-1.4,3.554,3.554,0,0,0-.25-1.4A3.653,3.653,0,0,0,77.09,71.376Z" fill="#898989"/></svg>