<svg xmlns="http://www.w3.org/2000/svg" width="19" height="15" viewBox="0 0 153.364 115.141"><path d="M124.755,4.469H32.547A30.579,30.579,0,0,0,1.969,35.047V89.032A30.579,30.579,0,0,0,32.547,119.61h92.208a30.579,30.579,0,0,0,30.578-30.578V35.047A30.579,30.579,0,0,0,124.755,4.469Zm0,9.173a21.211,21.211,0,0,1,11.574,3.448L97.005,56.237a25.985,25.985,0,0,1-36.755-.061L21.21,16.96a21.222,21.222,0,0,1,11.337-3.318Zm21.4,75.39a21.428,21.428,0,0,1-21.4,21.4H32.547a21.428,21.428,0,0,1-21.4-21.4V35.047a21.2,21.2,0,0,1,3.509-11.681L53.76,62.643A34.9,34.9,0,0,0,78.6,72.986h.061A34.93,34.93,0,0,0,103.48,62.735L142.78,23.6a21.181,21.181,0,0,1,3.379,11.444Z" transform="translate(-1.969 -4.469)" fill="#898989"/></svg>