<svg xmlns="http://www.w3.org/2000/svg" width="154.121" height="154.121" viewBox="0 0 154.121 154.121"><g transform="translate(-13324.977 15505.237)"><g transform="translate(13324.977 -15505.237)"><path d="M29.256,16.355h0a11.206,11.206,0,0,1,4.713,1.051L58.575,33.261a9.619,9.619,0,0,0,.87.5,14.115,14.115,0,0,1-.047,25.25,9.543,9.543,0,0,0-.87.494L33.851,75.26A11.255,11.255,0,0,1,29.177,76.3a11.562,11.562,0,0,1-8.124-3.419,11.074,11.074,0,0,1-3.278-8.022l.086-37.106A11.43,11.43,0,0,1,29.256,16.355m0-9.41a20.82,20.82,0,0,0-20.8,20.78L8.366,64.831A20.751,20.751,0,0,0,38.438,83.494L63.594,67.434c17.353-8.641,17.4-33.381.078-42.078L38.579,9.18a20.724,20.724,0,0,0-9.324-2.235Z" transform="translate(38.192 30.737)" fill="#ff5722"/><g transform="translate(0 0)" fill="none" stroke="#ff5722" stroke-width="10"><circle cx="77.061" cy="77.061" r="77.061" stroke="none"/><circle cx="77.061" cy="77.061" r="72.061" fill="none"/></g></g></g></svg>