<svg xmlns="http://www.w3.org/2000/svg" width="25" height="25" viewBox="0 0 180.599 180.604"><g transform="translate(-12466.183 16675.912)"><g transform="translate(12466.183 -16675.912)"><path d="M92.135,182.433a90.3,90.3,0,1,1,90.295-90.3A90.4,90.4,0,0,1,92.135,182.433Zm0-169.77a79.474,79.474,0,1,0,79.472,79.473A79.565,79.565,0,0,0,92.135,12.662Z" transform="translate(-1.831 -1.83)" fill="#767676"/><path d="M62.572,25.828H49.231A5.239,5.239,0,0,0,44,31.064V45.624H62.572l-2.925,18.65H44v46.877H24.533V64.274H8.881V45.624H24.533V31.064a24.721,24.721,0,0,1,24.7-24.7H62.572Z" transform="translate(54.758 34.58)" fill="#767676"/></g></g></svg>