<svg xmlns="http://www.w3.org/2000/svg" width="25" height="25" viewBox="0 0 180.6 180.604"><g transform="translate(-12983.049 16677.057)"><g transform="translate(12983.049 -16677.057)"><path d="M92.394,330.307A90.3,90.3,0,1,1,182.689,240,90.4,90.4,0,0,1,92.394,330.307Zm0-169.77A79.473,79.473,0,1,0,171.857,240,79.563,79.563,0,0,0,92.394,160.536Z" transform="translate(-2.09 -149.704)" fill="#767676"/><g transform="translate(38.896 40.459)"><path d="M74.046,161.353a29.662,29.662,0,0,1,29.626,29.626v30.638a29.662,29.662,0,0,1-29.626,29.627H43.192a29.656,29.656,0,0,1-29.626-29.627V190.98a29.656,29.656,0,0,1,29.626-29.626H74.046m0-7.167H43.192A36.9,36.9,0,0,0,6.4,190.98v30.638a36.9,36.9,0,0,0,36.793,36.794H74.046a36.9,36.9,0,0,0,36.784-36.794V190.98a36.9,36.9,0,0,0-36.784-36.794Z" transform="translate(-6.399 -154.186)" fill="#767676"/><path d="M39.805,163.69A23.971,23.971,0,1,1,15.83,187.657,23.993,23.993,0,0,1,39.805,163.69m0-7.077a31.044,31.044,0,1,0,31.043,31.044,31.041,31.041,0,0,0-31.043-31.044Z" transform="translate(12.568 -134.704)" fill="#767676"/><ellipse cx="3.771" cy="3.771" rx="3.771" ry="3.771" transform="translate(74.991 16.104)" fill="#767676"/></g></g></g></svg>