<svg xmlns="http://www.w3.org/2000/svg" width="25" height="25" viewBox="0 0 180.599 180.604"><g transform="translate(-13252 16671)"><g transform="translate(13251.505 -16671.396)"><g transform="translate(0 0)"><path d="M92.134,261.933a90.3,90.3,0,1,1,90.3-90.3A90.4,90.4,0,0,1,92.134,261.933Zm0-169.77a79.474,79.474,0,1,0,79.472,79.474A79.565,79.565,0,0,0,92.134,92.162Z" transform="translate(-1.335 -80.934)" fill="#767676"/></g><g transform="translate(57.717 54.135)"><path d="M83.914,131.676V159.66H67.693V133.545c0-6.554-2.347-11.031-8.214-11.031a8.884,8.884,0,0,0-8.332,5.931,11.219,11.219,0,0,0-.533,3.954V159.66H34.384s.217-44.223,0-48.809h16.23v6.924l-.108.154h.108v-.154c2.148-3.322,6-8.07,14.623-8.07C75.907,109.7,83.914,116.683,83.914,131.676ZM17.4,87.327c-5.551,0-9.18,3.647-9.18,8.431,0,4.685,3.529,8.44,8.973,8.44H17.3c5.66,0,9.171-3.755,9.171-8.44C26.377,90.974,22.965,87.327,17.4,87.327ZM9.19,159.66H25.411V110.851H9.19Z" transform="translate(-13.446 -87.065)" fill="#767676"/></g></g></g></svg>