<svg xmlns="http://www.w3.org/2000/svg" width="25" height="25" viewBox="0 0 180.599 180.604"><g transform="translate(-12719 16677)"><g transform="translate(12719 -16677)"><path d="M92.134,295.266a90.3,90.3,0,1,1,90.3-90.3A90.4,90.4,0,0,1,92.134,295.266Zm0-169.77a79.473,79.473,0,1,0,79.472,79.473A79.565,79.565,0,0,0,92.134,125.5Z" transform="translate(-1.83 -114.663)" fill="#767676"/></g><g transform="translate(-0.301 -0.273)"><path d="M41.479,136.546,17.206,123.267a4.455,4.455,0,0,0-6.6,3.909v26.332a4.445,4.445,0,0,0,6.571,3.927l24.273-13.053a4.456,4.456,0,0,0,.027-7.835ZM17.043,150.195V130.516l18.144,9.93Z" transform="translate(12787.546 -16727.469)" fill="#767676"/><path d="M114.793,139.692l-.009-.045c-.09-.885-1.02-8.747-4.847-12.746A17.808,17.808,0,0,0,98.1,121.349l-.542-.072-.2-.018c-14.524-1.056-36.45-1.2-36.676-1.2H60.65c-.217,0-22.152.144-36.8,1.2l-.2.018-.515.063a17.469,17.469,0,0,0-11.771,5.723c-3.638,3.963-4.694,11.654-4.8,12.52l-.009.108c-.036.37-.8,9.135-.8,17.928v8.215c0,8.792.767,17.557.8,17.928l.009.054c.09.867,1.02,8.585,4.82,12.593,4.152,4.55,9.415,5.145,12.24,5.47.442.054.83.1,1.092.144l.253.036c8.386.794,34.672,1.183,35.791,1.2h.063c.226,0,22.152-.144,36.676-1.2l.19-.018c.19-.027.388-.045.614-.072a17,17,0,0,0,11.672-5.579c3.647-3.963,4.694-11.654,4.8-12.52l.018-.108c.027-.37.8-9.135.8-17.928v-8.215C115.6,148.827,114.82,140.062,114.793,139.692Zm-5.633,26.142c0,8.142-.713,16.519-.776,17.3-.28,2.121-1.39,6.987-3.159,8.919a10.587,10.587,0,0,1-7.6,3.521c-.244.027-.478.054-.686.081-14.046,1.011-35.15,1.164-36.116,1.173-1.092-.018-27-.415-35.132-1.164-.415-.072-.867-.126-1.336-.171-2.41-.28-5.7-.659-8.232-3.439l-.063-.063c-1.742-1.824-2.816-6.373-3.1-8.828-.054-.587-.776-9.063-.776-17.323v-8.215c0-8.133.7-16.5.776-17.287.325-2.5,1.453-7.077,3.159-8.928a11.092,11.092,0,0,1,7.754-3.665l.524-.063c14.253-1.02,35.511-1.173,36.27-1.183.767.009,22.016.162,36.134,1.183l.569.063a11.547,11.547,0,0,1,7.889,3.575l.018.027c1.751,1.814,2.825,6.445,3.1,8.955.054.551.785,9.045.785,17.323Z" transform="translate(12748.552 -16748.785)" fill="#767676"/></g></g></svg>