<svg xmlns="http://www.w3.org/2000/svg" width="40" height="45" viewBox="0 0 141.21 161.063"><path d="M107.314,1.97H64.13v.089L3.289,72.612H3.265v.032l-.024.024.024.016V82.3h.04v43.6a37.172,37.172,0,0,0,37.129,37.137h66.879A37.174,37.174,0,0,0,144.451,125.9V39.107A37.179,37.179,0,0,0,107.314,1.97ZM64.13,17.535V45.162A27.485,27.485,0,0,1,36.673,72.612H16.635ZM134.772,125.9a27.485,27.485,0,0,1-27.457,27.449H40.435A27.478,27.478,0,0,1,12.986,125.9V82.3H36.673A37.174,37.174,0,0,0,73.81,45.162v-33.5h33.5a27.485,27.485,0,0,1,27.457,27.449Z" transform="translate(-3.241 -1.971)" fill="#ff5722"/><text transform="translate(71.062 116.013)" fill="#ff5722" font-size="68" font-family="ProductSans-Bold, Product Sans" font-weight="700"><tspan x="-24.344" y="0">A</tspan></text></svg>