<svg xmlns="http://www.w3.org/2000/svg" width="45" height="45" viewBox="0 0 159.786 159.842"><g transform="translate(40.337)"><path d="M46.6,80.892A39.476,39.476,0,1,1,86.081,41.415,39.528,39.528,0,0,1,46.6,80.892Zm0-69.4A29.922,29.922,0,1,0,76.526,41.415,29.961,29.961,0,0,0,46.6,11.493Z" transform="translate(-7.128 -1.939)" fill="#ff5722"/></g><path d="M82.071,78.6v-.191a4.943,4.943,0,0,0-4.885-4.861h-37.4c-15.348,0-27.794-9.666-27.794-25.013S24.442,23.023,39.789,23.023H96.295a4.939,4.939,0,0,0,4.765-4.845V18a4.919,4.919,0,0,0-4.678-4.821H39.71c-20.79,0-37.644,14.575-37.644,35.365S18.92,83.4,39.71,83.4H77.521A4.919,4.919,0,0,0,82.071,78.6Z" transform="translate(-2.066 76.352)" fill="#ff5722"/><path d="M74.264,44.327a5.1,5.1,0,0,1-5.06,5.06H49.514v19.69a5.064,5.064,0,0,1-10.128,0V49.387H19.7a5.06,5.06,0,0,1,0-10.12h19.69V19.576a5.064,5.064,0,0,1,10.128,0v19.69H69.2A5.1,5.1,0,0,1,74.264,44.327Z" transform="translate(85.522 85.705)" fill="#ff5722"/></svg>