<svg xmlns="http://www.w3.org/2000/svg" width="45" height="45" viewBox="0 0 155.296 154.979"><path d="M120.805,1.933H38.5C18.317,1.933,2.009,15.747,2.009,35.7S18.317,69.466,38.5,69.466h82.3c20.192,0,36.5-13.814,36.5-33.766S141,1.933,120.805,1.933Zm-.772,58.329H38.5c-14.756,0-27.172-9.212-27.172-23.8S23.745,11.909,38.5,11.909h81.532c14.756,0,27.952,9.976,27.952,24.555S134.789,60.262,120.033,60.262Z" transform="translate(-2.009 -1.933)" fill="#ff5722"/><path d="M79.225,75.875h0a4.451,4.451,0,0,0-4.633-4.633H38.3c-14.671,0-27.025-9.266-27.025-23.937S23.629,22.6,38.3,22.6H74.592a4.982,4.982,0,0,0,4.633-4.633h0a4.982,4.982,0,0,0-4.633-4.633H38.3c-20.076-.772-36.291,13.127-36.291,33.2S18.224,80.508,38.3,80.508H74.592A4.982,4.982,0,0,0,79.225,75.875Z" transform="translate(-2.009 74.47)" fill="#ff5722"/><path d="M72.417,43.4a4.94,4.94,0,0,1-4.9,4.9H48.434v19.08a4.9,4.9,0,0,1-9.806,0V48.3H19.548a4.9,4.9,0,1,1,0-9.806h19.08V19.414a4.9,4.9,0,0,1,9.806,0v19.08h19.08A4.94,4.94,0,0,1,72.417,43.4Z" transform="translate(82.869 82.611)" fill="#ff5722"/></svg>