<svg xmlns="http://www.w3.org/2000/svg" width="45" height="45" viewBox="0 0 155.13 155.516"><path d="M127.951,79.878V78.8a30.921,30.921,0,0,0-19.389-28.751L90.989,42.978a31.22,31.22,0,0,0-6.579-1.755V35.842h19.521a14.573,14.573,0,0,0,0-29.146H84.41V6.581a4.635,4.635,0,1,0-9.269,0V41.161a30.9,30.9,0,0,0-7.12,1.778l-17.6,7.012a30.916,30.916,0,0,0-19.49,28.674V79.9a30.833,30.833,0,0,0-28.96,30.723v15.9a30.835,30.835,0,0,0,28.844,30.715v.108h1.067c.34.008.665.1,1.013.1H122.81l5.017.008v-.17A30.853,30.853,0,0,0,157.1,126.526v-15.9A30.846,30.846,0,0,0,127.951,79.878ZM84.58,15.974h19.351a5.3,5.3,0,0,1,0,10.591H84.58ZM40.2,78.641A21.555,21.555,0,0,1,53.85,58.564l17.6-7a21.678,21.678,0,0,1,16.08.031L105.1,58.656A21.535,21.535,0,0,1,118.674,78.78l-.108,69.393L40.1,148.08ZM10.224,126.526v-15.9A22.621,22.621,0,0,1,30.912,88.158l-.085,60.827A22.62,22.62,0,0,1,10.224,126.526Zm138.616,0a22.62,22.62,0,0,1-21,22.5l.093-60.889a22.621,22.621,0,0,1,20.9,22.489Z" transform="translate(-1.967 -1.942)" fill="#ff5722"/></svg>